<?xml version="1.0" encoding="UTF-8" standalone="no"?>
<!-- Generator: Adobe Illustrator 19.0.0, SVG Export Plug-In . SVG Version: 6.00 Build 0)  -->

<svg
   xmlns:dc="http://purl.org/dc/elements/1.1/"
   xmlns:cc="http://creativecommons.org/ns#"
   xmlns:rdf="http://www.w3.org/1999/02/22-rdf-syntax-ns#"
   xmlns:svg="http://www.w3.org/2000/svg"
   xmlns="http://www.w3.org/2000/svg"
   xmlns:sodipodi="http://sodipodi.sourceforge.net/DTD/sodipodi-0.dtd"
   xmlns:inkscape="http://www.inkscape.org/namespaces/inkscape"
   version="1.1"
   id="Layer_1"
   x="0px"
   y="0px"
   viewBox="0 0 9840 9840"
   xml:space="preserve"
   sodipodi:docname="calendar.svg"
   width="20"
   height="20"
   inkscape:version="0.92.4 (5da689c313, 2019-01-14)"><metadata
   id="metadata97"><rdf:RDF><cc:Work
       rdf:about=""><dc:format>image/svg+xml</dc:format><dc:type
         rdf:resource="http://purl.org/dc/dcmitype/StillImage" /><dc:title></dc:title></cc:Work></rdf:RDF></metadata><defs
   id="defs95" /><sodipodi:namedview
   pagecolor="#ffffff"
   bordercolor="#666666"
   borderopacity="1"
   objecttolerance="10"
   gridtolerance="10"
   guidetolerance="10"
   inkscape:pageopacity="0"
   inkscape:pageshadow="2"
   inkscape:window-width="1366"
   inkscape:window-height="741"
   id="namedview93"
   showgrid="false"
   units="px"
   fit-margin-top="0"
   fit-margin-left="0"
   fit-margin-right="0"
   fit-margin-bottom="0"
   inkscape:zoom="10.853802"
   inkscape:cx="6.7828182"
   inkscape:cy="13.313813"
   inkscape:window-x="-9"
   inkscape:window-y="-9"
   inkscape:window-maximized="1"
   inkscape:current-layer="Layer_1" />

























<g
   id="g949"
   transform="matrix(20.45171,0,0,20.45171,-122.71026,-222.2412)"><path
     id="path2"
     d="m 486,437.6 c 0,28 -24,54.4 -52,54.4 H 58 C 30,492 6,465.6 6,437.6 V 84.8 C 6,56.8 30,36 58,36 h 376 c 28,0 52,20.8 52,48.8 z"
     style="fill:#f4cf31"
     inkscape:connector-curvature="0" /><path
     id="path4"
     d="M 7.6,85.6 C 7.6,57.6 30,36 58,36 h 376 c 28,0 52,20.8 52,48.8 v 352.8 c 0,28 -24,54.4 -52,54.4"
     style="fill:#f2b233"
     inkscape:connector-curvature="0" /><path
     id="path6"
     d="M 434,36 H 58 C 30,36 6,56.8 6,84.8 V 132 H 486 V 84.8 C 486,56.8 462,36 434,36 Z"
     style="fill:#00233f"
     inkscape:connector-curvature="0" /><path
     id="path8"
     d="M 486,132 V 84.8 C 486,56.8 462,36 434,36 H 62"
     style="fill:#104c75"
     inkscape:connector-curvature="0" /><g
     id="g48">
	<circle
   id="circle10"
   r="12.8"
   cy="210.39999"
   cx="90"
   style="fill:#024651" />
	<circle
   id="circle12"
   r="12.8"
   cy="210.39999"
   cx="168.39999"
   style="fill:#024651" />
	<circle
   id="circle14"
   r="12.8"
   cy="210.39999"
   cx="246"
   style="fill:#024651" />
	<circle
   id="circle16"
   r="12.8"
   cy="210.39999"
   cx="323.60001"
   style="fill:#024651" />
	<circle
   id="circle18"
   r="12.8"
   cy="277.60001"
   cx="90"
   style="fill:#024651" />
	<circle
   id="circle20"
   r="12.8"
   cy="277.60001"
   cx="168.39999"
   style="fill:#024651" />
	<circle
   id="circle22"
   r="12.8"
   cy="277.60001"
   cx="246"
   style="fill:#024651" />
	<circle
   id="circle24"
   r="12.8"
   cy="277.60001"
   cx="323.60001"
   style="fill:#024651" />
	<circle
   id="circle26"
   r="12.8"
   cy="277.60001"
   cx="402"
   style="fill:#024651" />
	<circle
   id="circle28"
   r="12.8"
   cy="344.79999"
   cx="90"
   style="fill:#024651" />
	<circle
   id="circle30"
   r="12.8"
   cy="344.79999"
   cx="168.39999"
   style="fill:#024651" />
	<circle
   id="circle32"
   r="12.8"
   cy="344.79999"
   cx="246"
   style="fill:#024651" />
	<circle
   id="circle34"
   r="12.8"
   cy="344.79999"
   cx="323.60001"
   style="fill:#024651" />
	<circle
   id="circle36"
   r="12.8"
   cy="344.79999"
   cx="402"
   style="fill:#024651" />
	<circle
   id="circle38"
   r="12.8"
   cy="412"
   cx="90"
   style="fill:#024651" />
	<circle
   id="circle40"
   r="12.8"
   cy="412"
   cx="168.39999"
   style="fill:#024651" />
	<circle
   id="circle42"
   r="12.8"
   cy="412"
   cx="246"
   style="fill:#024651" />
	<circle
   id="circle44"
   r="12.8"
   cy="412"
   cx="323.60001"
   style="fill:#024651" />
	<circle
   id="circle46"
   r="12.8"
   cy="412"
   cx="402"
   style="fill:#024651" />
</g><path
     id="path50"
     d="m 414,170.4 c 0,-7.2 -12.8,-12 -22.4,-12 -14.4,0 -25.6,10.4 -25.6,22.4 0,4.8 1.6,9.6 4.8,12.8 v 0 0 l 43.2,43.2 z"
     style="fill:#d81665"
     inkscape:connector-curvature="0" /><path
     id="path52"
     d="m 414,170.4 c 0,-8 13.6,-12 23.2,-12 14.4,0 24.8,11.2 24.8,22.4 0,4.8 -1.6,10.4 -4.8,12.8 v 0 0 L 414,236.8 Z"
     style="fill:#a3024b"
     inkscape:connector-curvature="0" /><path
     id="path54"
     d="m 142,46.4 c 0,9.6 -6.4,16.8 -16,16.8 v 0 c -9.6,0 -16,-8 -16,-16.8 V 16.8 C 110,7.2 116.4,0 126,0 v 0 c 9.6,0 16,8 16,16.8 z"
     style="fill:#f4cf31"
     inkscape:connector-curvature="0" /><path
     id="path56"
     d="m 126.8,0 v 0 c 9.6,0 15.2,8 15.2,16.8 v 29.6 c 0,9.6 -6.4,16.8 -16,16.8 v 0"
     style="fill:#f2b233"
     inkscape:connector-curvature="0" /><path
     id="path58"
     d="m 382,46.4 c 0,9.6 -6.4,16.8 -16,16.8 v 0 c -9.6,0 -16,-8 -16,-16.8 V 16.8 C 350,7.2 356.4,0 366,0 v 0 c 9.6,0 16,8 16,16.8 z"
     style="fill:#f4cf31"
     inkscape:connector-curvature="0" /><path
     id="path60"
     d="M 364.4,0 V 0 C 374,0 382,8 382,16.8 v 29.6 c 0,9.6 -8,16.8 -17.6,16.8 v 0"
     style="fill:#f2b233"
     inkscape:connector-curvature="0" /><g
     id="g62">
</g><g
     id="g64">
</g><g
     id="g66">
</g><g
     id="g68">
</g><g
     id="g70">
</g><g
     id="g72">
</g><g
     id="g74">
</g><g
     id="g76">
</g><g
     id="g78">
</g><g
     id="g80">
</g><g
     id="g82">
</g><g
     id="g84">
</g><g
     id="g86">
</g><g
     id="g88">
</g><g
     id="g90">
</g></g>
</svg>